<svg fill="none" height="128" viewBox="0 0 128 128" width="128" xmlns="http://www.w3.org/2000/svg" xmlns:xlink="http://www.w3.org/1999/xlink"><clipPath id="a"><path d="m0 0h128v128h-128z"/></clipPath><g clip-path="url(#a)"><rect fill="#02594d" height="128" rx="64" width="128"/><path d="m64.5504 58.1186c1.8799 0 3.3234-.0339 4.3305-.1017l5.3375-.1016c7.6539 0 13.8643 1.0508 18.6312 3.1525 4.767 2.0339 7.1504 6.1356 7.1504 12.3051 0 8-3.4913 13.2881-10.4738 15.8644-6.9825 2.5085-15.1063 3.7627-24.3716 3.7627-9.0638 0-17.3555-1.3898-24.8752-4.1695-7.5196-2.8475-11.2794-8.2712-11.2794-16.2712l19.8397.1017c0 3.3899 1.6114 5.7288 4.8341 7.017 3.2227 1.2203 7.0496 1.8305 11.4808 1.8305 5.4383 0 9.3995-.6102 11.8837-1.8305 2.4842-1.2204 3.7262-3.1187 3.7262-5.6949 0-2.5085-1.4435-4.1017-4.3305-4.7797-2.8198-.7458-5.4383-1.1187-7.8553-1.1187s-3.8941 0-4.4312 0c-6.244 0-11.8165-.305-16.7177-.9152-4.9012-.678-9.1981-2.2373-12.8908-4.678-3.6927-2.5084-5.539-6.2712-5.539-11.2881 0-7.5254 3.6255-12.4407 10.8766-14.7458s15.6099-3.4576 25.0766-3.4576c8.9967 0 17.087 1.3898 24.2709 4.1695s10.7759 8.1695 10.7759 16.1695l-19.5376-.1017c0-3.5254-1.8463-5.8644-5.539-7.017-3.6927-1.1525-7.0161-1.7288-9.9702-1.7288-10.7423 0-16.1135 2.1695-16.1135 6.5085 0 4.6102 5.2369 6.983 15.7107 7.1186z" fill="#d3ede4"/></g></svg>